<svg xmlns="http://www.w3.org/2000/svg" xmlns:xlink="http://www.w3.org/1999/xlink" version="1.1" x="0px" y="0px" viewBox="0 0 100 100" style="enable-background:new 0 0 100 100;" xml:space="preserve"><style type="text/css">
	.st0{fill:none;stroke:#000000;stroke-width:4;stroke-miterlimit:10;}
	.st1{fill:none;stroke:#000000;stroke-miterlimit:10;}
	.st2{fill:none;stroke:#000000;stroke-width:2;stroke-miterlimit:10;}
      </style>
<g stroke="#CC7777" stroke-width="1.5" fill="none" transform="scale(1)"><path d="M92.5,47.5h-7.6c-1.2-17.3-15.1-31.2-32.4-32.4V7.5C52.5,6.1,51.4,5,50,5h0c-1.4,0-2.5,1.1-2.5,2.5v7.6  c-17.3,1.2-31.2,15.1-32.4,32.4H7.5C6.1,47.5,5,48.6,5,50v0c0,1.4,1.1,2.5,2.5,2.5h7.6c1.2,17.3,15.1,31.2,32.4,32.4v7.6  c0,1.4,1.1,2.5,2.5,2.5h0c1.4,0,2.5-1.1,2.5-2.5v-7.6c17.3-1.2,31.2-15.1,32.4-32.4h7.6c1.4,0,2.5-1.1,2.5-2.5v0  C95,48.6,93.9,47.5,92.5,47.5z M52.5,79.9V67.5c0-1.4-1.1-2.5-2.5-2.5h0c-1.4,0-2.5,1.1-2.5,2.5v12.4c-14.6-1.2-26.2-12.8-27.4-27.4  h12.4c1.4,0,2.5-1.1,2.5-2.5v0c0-1.4-1.1-2.5-2.5-2.5H20.1c1.2-14.6,12.8-26.2,27.4-27.4v12.4c0,1.4,1.1,2.5,2.5,2.5h0  c1.4,0,2.5-1.1,2.5-2.5V20.1c14.6,1.2,26.2,12.8,27.4,27.4H67.5c-1.4,0-2.5,1.1-2.5,2.5v0c0,1.4,1.1,2.5,2.5,2.5h12.4  C78.7,67.1,67.1,78.7,52.5,79.9z"/></g></svg>
